<svg width="100%" height="100%" viewBox="0 0 691 240" version="1.1" xmlns="http://www.w3.org/2000/svg" xmlns:xlink="http://www.w3.org/1999/xlink" xml:space="preserve" xmlns:serif="http://www.serif.com/" style="fill-rule:evenodd;clip-rule:evenodd;stroke-linejoin:round;stroke-miterlimit:2;">
    <g transform="matrix(1,0,0,1,-791.979,-249.768)">
        <path d="M830.979,252.107C839.379,252.107 846.029,254.157 850.929,258.257C855.829,262.357 858.279,268.007 858.279,275.207C858.279,282.407 855.829,288.057 850.929,292.157C846.029,296.257 839.379,298.307 830.979,298.307C822.579,298.307 815.929,296.257 811.029,292.157C806.129,288.057 803.679,282.407 803.679,275.207C803.679,268.007 806.129,262.357 811.029,258.257C815.929,254.157 822.579,252.107 830.979,252.107ZM854.379,326.207L854.379,456.707C854.379,465.107 855.829,470.807 858.729,473.807C861.629,476.807 866.579,478.307 873.579,478.307L873.579,484.607C869.979,484.407 864.379,484.157 856.779,483.857C849.179,483.557 841.479,483.407 833.679,483.407C825.879,483.407 817.979,483.557 809.979,483.857C801.979,484.157 795.979,484.407 791.979,484.607L791.979,478.307C798.979,478.307 803.929,476.807 806.829,473.807C809.729,470.807 811.179,465.107 811.179,456.707L811.179,362.207C811.179,353.207 809.829,346.557 807.129,342.257C804.429,337.957 799.379,335.807 791.979,335.807L791.979,329.507C798.379,330.107 804.579,330.407 810.579,330.407C818.979,330.407 826.829,330.057 834.129,329.357C841.429,328.657 848.179,327.607 854.379,326.207Z" style="fill-rule:nonzero;"/>
        <path d="M947.5,280.307L947.5,329.507L982.9,329.507L982.9,335.507L947.5,335.507L947.5,456.646C947.5,462.687 948.6,466.977 950.8,469.518C953,472.059 956.259,473.329 960.578,473.329C964.3,473.329 967.94,471.959 971.5,469.218C975.059,466.477 978.259,461.827 981.1,455.268L986.2,458.029C982.878,466.988 977.967,474.358 971.467,480.138C964.967,485.917 956.157,488.807 945.039,488.807C938.357,488.807 932.547,487.957 927.608,486.257C922.669,484.557 918.5,482.048 915.1,478.729C910.7,474.248 907.8,468.777 906.4,462.318C905,455.859 904.3,447.388 904.3,436.907L904.3,335.507L879.1,335.507L879.1,329.507L904.3,329.507L904.3,289.907C912.659,289.826 920.368,289.035 927.428,287.535C934.487,286.035 941.178,283.626 947.5,280.307Z" style="fill-rule:nonzero;"/>
        <path d="M1033.42,486.707C1024.5,486.707 1017.04,485.007 1011.04,481.607C1005.04,478.207 1000.61,473.647 997.749,467.927C994.888,462.206 993.458,455.946 993.458,449.146C993.458,440.587 995.418,433.597 999.338,428.177C1003.26,422.756 1008.33,418.377 1014.55,415.038C1020.77,411.698 1027.34,408.909 1034.26,406.668C1041.18,404.427 1047.75,402.257 1053.97,400.157C1060.19,398.057 1065.26,395.577 1069.18,392.718C1073.1,389.859 1075.06,386.129 1075.06,381.529L1075.06,358.068C1075.06,352.787 1074.23,348.127 1072.57,344.088C1070.91,340.048 1068.34,336.888 1064.86,334.607C1061.38,332.326 1056.8,331.185 1051.12,331.185C1047.2,331.185 1043.23,331.735 1039.21,332.835C1035.19,333.935 1031.84,335.846 1029.16,338.568C1034.88,340.446 1039.26,343.435 1042.3,347.535C1045.34,351.635 1046.86,356.366 1046.86,361.729C1046.86,368.529 1044.54,373.888 1039.9,377.807C1035.26,381.726 1029.66,383.685 1023.1,383.685C1015.98,383.685 1010.56,381.445 1006.84,376.966C1003.12,372.486 1001.26,367.107 1001.26,360.829C1001.26,355.029 1002.71,350.198 1005.61,346.338C1008.51,342.477 1012.62,338.907 1017.94,335.629C1023.38,332.307 1030.08,329.736 1038.04,327.916C1046,326.095 1054.58,325.185 1063.78,325.185C1072.94,325.185 1081.2,326.135 1088.56,328.035C1095.92,329.935 1102.16,333.466 1107.28,338.629C1111.88,343.188 1114.86,348.828 1116.22,355.548C1117.58,362.269 1118.26,370.668 1118.26,380.746L1118.26,462.346C1118.26,467.346 1118.77,470.827 1119.79,472.788C1120.81,474.748 1122.5,475.729 1124.86,475.729C1126.7,475.729 1128.47,475.229 1130.17,474.229C1131.87,473.229 1133.7,471.988 1135.66,470.507L1138.78,475.607C1134.46,479.166 1129.59,481.906 1124.17,483.827C1118.75,485.747 1112.6,486.707 1105.72,486.707C1098.24,486.707 1092.33,485.677 1087.99,483.618C1083.65,481.559 1080.53,478.698 1078.63,475.038C1076.73,471.377 1075.72,467.146 1075.6,462.346C1070.92,469.906 1065.19,475.856 1058.41,480.196C1051.63,484.537 1043.3,486.707 1033.42,486.707ZM1054.84,467.507C1058.8,467.507 1062.43,466.537 1065.73,464.596C1069.03,462.656 1072.14,459.566 1075.06,455.329L1075.06,393.829C1073.26,396.748 1070.75,399.417 1067.53,401.838C1064.31,404.258 1060.9,406.708 1057.3,409.188C1053.7,411.667 1050.29,414.427 1047.07,417.468C1043.85,420.509 1041.21,424.198 1039.15,428.538C1037.09,432.877 1036.06,438.207 1036.06,444.529C1036.06,452.288 1037.79,458.058 1041.25,461.838C1044.71,465.617 1049.24,467.507 1054.84,467.507Z" style="fill-rule:nonzero;"/>
        <path d="M1208.44,249.768L1208.44,456.726C1208.44,465.113 1209.89,470.807 1212.79,473.807C1215.69,476.807 1220.64,478.307 1227.64,478.307L1227.64,484.607C1223.9,484.407 1218.25,484.157 1210.68,483.857C1203.11,483.557 1195.4,483.407 1187.56,483.407C1179.82,483.407 1171.96,483.557 1163.99,483.857C1156.02,484.157 1150.04,484.407 1146.04,484.607L1146.04,478.307C1153.04,478.307 1157.99,476.809 1160.89,473.814C1163.79,470.819 1165.24,465.129 1165.24,456.745L1165.24,285.745C1165.24,276.76 1163.89,270.118 1161.2,265.818C1158.5,261.518 1153.45,259.368 1146.04,259.368L1146.04,253.068C1152.44,253.668 1158.64,253.968 1164.64,253.968C1172.96,253.968 1180.79,253.618 1188.13,252.918C1195.47,252.218 1202.24,251.168 1208.44,249.768Z" style="fill-rule:nonzero;"/>
        <path d="M1279.72,252.107C1288.12,252.107 1294.77,254.157 1299.67,258.257C1304.57,262.357 1307.02,268.007 1307.02,275.207C1307.02,282.407 1304.57,288.057 1299.67,292.157C1294.77,296.257 1288.12,298.307 1279.72,298.307C1271.32,298.307 1264.67,296.257 1259.77,292.157C1254.87,288.057 1252.42,282.407 1252.42,275.207C1252.42,268.007 1254.87,262.357 1259.77,258.257C1264.67,254.157 1271.32,252.107 1279.72,252.107ZM1303.12,326.207L1303.12,456.707C1303.12,465.107 1304.57,470.807 1307.47,473.807C1310.37,476.807 1315.32,478.307 1322.32,478.307L1322.32,484.607C1318.72,484.407 1313.12,484.157 1305.52,483.857C1297.92,483.557 1290.22,483.407 1282.42,483.407C1274.62,483.407 1266.72,483.557 1258.72,483.857C1250.72,484.157 1244.72,484.407 1240.72,484.607L1240.72,478.307C1247.72,478.307 1252.67,476.807 1255.57,473.807C1258.47,470.807 1259.92,465.107 1259.92,456.707L1259.92,362.207C1259.92,353.207 1258.57,346.557 1255.87,342.257C1253.17,337.957 1248.12,335.807 1240.72,335.807L1240.72,329.507C1247.12,330.107 1253.32,330.407 1259.32,330.407C1267.72,330.407 1275.57,330.057 1282.87,329.357C1290.17,328.657 1296.92,327.607 1303.12,326.207Z" style="fill-rule:nonzero;"/>
        <path d="M1376.68,486.707C1367.76,486.707 1360.3,485.007 1354.3,481.607C1348.3,478.207 1343.87,473.647 1341.01,467.927C1338.15,462.206 1336.72,455.946 1336.72,449.146C1336.72,440.587 1338.68,433.597 1342.6,428.177C1346.52,422.756 1351.59,418.377 1357.81,415.038C1364.03,411.698 1370.6,408.909 1377.52,406.668C1384.44,404.427 1391.01,402.257 1397.23,400.157C1403.45,398.057 1408.52,395.577 1412.44,392.718C1416.36,389.859 1418.32,386.129 1418.32,381.529L1418.32,358.068C1418.32,352.787 1417.49,348.127 1415.83,344.088C1414.17,340.048 1411.6,336.888 1408.12,334.607C1404.64,332.326 1400.06,331.185 1394.38,331.185C1390.46,331.185 1386.49,331.735 1382.47,332.835C1378.45,333.935 1375.1,335.846 1372.42,338.568C1378.14,340.446 1382.52,343.435 1385.56,347.535C1388.6,351.635 1390.12,356.366 1390.12,361.729C1390.12,368.529 1387.8,373.888 1383.16,377.807C1378.52,381.726 1372.92,383.685 1366.36,383.685C1359.24,383.685 1353.82,381.445 1350.1,376.966C1346.38,372.486 1344.52,367.107 1344.52,360.829C1344.52,355.029 1345.97,350.198 1348.87,346.338C1351.77,342.477 1355.88,338.907 1361.2,335.629C1366.64,332.307 1373.34,329.736 1381.3,327.916C1389.26,326.095 1397.84,325.185 1407.04,325.185C1416.2,325.185 1424.46,326.135 1431.82,328.035C1439.18,329.935 1445.42,333.466 1450.54,338.629C1455.14,343.188 1458.12,348.828 1459.48,355.548C1460.84,362.269 1461.52,370.668 1461.52,380.746L1461.52,462.346C1461.52,467.346 1462.03,470.827 1463.05,472.788C1464.07,474.748 1465.76,475.729 1468.12,475.729C1469.96,475.729 1471.73,475.229 1473.43,474.229C1475.13,473.229 1476.96,471.988 1478.92,470.507L1482.04,475.607C1477.72,479.166 1472.85,481.906 1467.43,483.827C1462.01,485.747 1455.86,486.707 1448.98,486.707C1441.5,486.707 1435.59,485.677 1431.25,483.618C1426.91,481.559 1423.79,478.698 1421.89,475.038C1419.99,471.377 1418.98,467.146 1418.86,462.346C1414.18,469.906 1408.45,475.856 1401.67,480.196C1394.89,484.537 1386.56,486.707 1376.68,486.707ZM1398.1,467.507C1402.06,467.507 1405.69,466.537 1408.99,464.596C1412.29,462.656 1415.4,459.566 1418.32,455.329L1418.32,393.829C1416.52,396.748 1414.01,399.417 1410.79,401.838C1407.57,404.258 1404.16,406.708 1400.56,409.188C1396.96,411.667 1393.55,414.427 1390.33,417.468C1387.11,420.509 1384.47,424.198 1382.41,428.538C1380.35,432.877 1379.32,438.207 1379.32,444.529C1379.32,452.288 1381.05,458.058 1384.51,461.838C1387.97,465.617 1392.5,467.507 1398.1,467.507Z" style="fill-rule:nonzero;"/>
    </g>
</svg>